<svg width="40" height="40" viewBox="0 0 40 40" fill="#000000" xmlns="http://www.w3.org/2000/svg">
<path d="M16.9673 20.8328L22.4887 30.3963L16.9673 39.9598L5.92432 39.9598L0.402832 30.3963L5.9243 20.8328L16.9673 20.8328ZM34.4307 10.7503L39.9522 20.3138L34.4307 29.8773L23.3878 29.8773L17.8663 20.3138L23.3877 10.7503L34.4307 10.7503ZM1.55743 30.3961L6.50128 38.9591L16.3896 38.9593L21.3337 30.3956L16.3898 21.8326L6.50145 21.8324L1.55743 30.3961ZM19.0209 20.3136L23.9647 28.8766L33.8531 28.8768L38.7971 20.3131L33.8532 11.7501L23.9649 11.7499L19.0209 20.3136ZM16.697 1.03077L22.2185 10.5943L17.0565 19.9502L6.3738 19.7422L0.852317 10.1787L6.01351 0.823242L16.697 1.03077ZM2.00057 10.1675L6.95711 18.7525L16.472 18.9379L21.0698 10.6046L16.1132 2.0196L6.59749 1.83473L2.00057 10.1675Z" fill="#000000"/>
</svg>
